<svg width="40" height="40" viewBox="0 0 40 40" fill="none" xmlns="http://www.w3.org/2000/svg">
<path d="M20 12.5C21.3807 12.5 22.5 11.3807 22.5 10C22.5 8.61929 21.3807 7.5 20 7.5C18.6193 7.5 17.5 8.61929 17.5 10C17.5 11.3807 18.6193 12.5 20 12.5Z" fill="white"/>
<path d="M20 22.5C21.3807 22.5 22.5 21.3807 22.5 20C22.5 18.6193 21.3807 17.5 20 17.5C18.6193 17.5 17.5 18.6193 17.5 20C17.5 21.3807 18.6193 22.5 20 22.5Z" fill="white"/>
<path d="M20 32.5C21.3807 32.5 22.5 31.3807 22.5 30C22.5 28.6193 21.3807 27.5 20 27.5C18.6193 27.5 17.5 28.6193 17.5 30C17.5 31.3807 18.6193 32.5 20 32.5Z" fill="white"/>
</svg>
