<svg width="40" height="40" viewBox="0 0 40 40" fill="none" xmlns="http://www.w3.org/2000/svg">
<path d="M17.6667 27.6667L29.4167 15.9167L27.0833 13.5833L17.6667 23L12.9167 18.25L10.5833 20.5833L17.6667 27.6667ZM20 36.6667C17.6945 36.6667 15.5278 36.2289 13.5 35.3533C11.4722 34.4778 9.70834 33.2906 8.20834 31.7917C6.70834 30.2917 5.52112 28.5278 4.64668 26.5C3.77223 24.4722 3.33445 22.3056 3.33334 20C3.33334 17.6945 3.77112 15.5278 4.64668 13.5C5.52223 11.4722 6.70945 9.70834 8.20834 8.20834C9.70834 6.70834 11.4722 5.52112 13.5 4.64668C15.5278 3.77223 17.6945 3.33445 20 3.33334C22.3056 3.33334 24.4722 3.77112 26.5 4.64668C28.5278 5.52223 30.2917 6.70945 31.7917 8.20834C33.2917 9.70834 34.4795 11.4722 35.355 13.5C36.2306 15.5278 36.6678 17.6945 36.6667 20C36.6667 22.3056 36.2289 24.4722 35.3533 26.5C34.4778 28.5278 33.2906 30.2917 31.7917 31.7917C30.2917 33.2917 28.5278 34.4795 26.5 35.355C24.4722 36.2306 22.3056 36.6678 20 36.6667ZM20 33.3333C23.7222 33.3333 26.875 32.0417 29.4583 29.4583C32.0417 26.875 33.3333 23.7222 33.3333 20C33.3333 16.2778 32.0417 13.125 29.4583 10.5417C26.875 7.95834 23.7222 6.66668 20 6.66668C16.2778 6.66668 13.125 7.95834 10.5417 10.5417C7.95834 13.125 6.66668 16.2778 6.66668 20C6.66668 23.7222 7.95834 26.875 10.5417 29.4583C13.125 32.0417 16.2778 33.3333 20 33.3333Z" fill="white"/>
</svg>
