<svg width="90" height="16" viewBox="0 0 90 16" fill="none" xmlns="http://www.w3.org/2000/svg">
<path d="M7.79297 0.78125V15H4.61914V0.78125H7.79297ZM12.1191 0.78125V3.25195H0.380859V0.78125H12.1191ZM11.2207 9.82422V9.61914C11.2207 8.8444 11.3314 8.13151 11.5527 7.48047C11.7741 6.82292 12.0996 6.25326 12.5293 5.77148C12.959 5.28971 13.4863 4.91536 14.1113 4.64844C14.7363 4.375 15.4525 4.23828 16.2598 4.23828C17.0801 4.23828 17.8027 4.375 18.4277 4.64844C19.0592 4.91536 19.5898 5.28971 20.0195 5.77148C20.4492 6.25326 20.7747 6.82292 20.9961 7.48047C21.2174 8.13151 21.3281 8.8444 21.3281 9.61914V9.82422C21.3281 10.5924 21.2174 11.3053 20.9961 11.9629C20.7747 12.6139 20.4492 13.1836 20.0195 13.6719C19.5898 14.1536 19.0625 14.528 18.4375 14.7949C17.8125 15.0618 17.0931 15.1953 16.2793 15.1953C15.472 15.1953 14.7526 15.0618 14.1211 14.7949C13.4896 14.528 12.959 14.1536 12.5293 13.6719C12.0996 13.1836 11.7741 12.6139 11.5527 11.9629C11.3314 11.3053 11.2207 10.5924 11.2207 9.82422ZM14.2773 9.61914V9.82422C14.2773 10.2409 14.3099 10.6315 14.375 10.9961C14.4466 11.3607 14.5605 11.6797 14.7168 11.9531C14.873 12.2266 15.0781 12.4414 15.332 12.5977C15.5924 12.7474 15.9082 12.8223 16.2793 12.8223C16.6504 12.8223 16.9629 12.7474 17.2168 12.5977C17.4707 12.4414 17.6758 12.2266 17.832 11.9531C17.9883 11.6797 18.099 11.3607 18.1641 10.9961C18.2357 10.6315 18.2715 10.2409 18.2715 9.82422V9.61914C18.2715 9.20898 18.2357 8.82487 18.1641 8.4668C18.099 8.10221 17.9883 7.77995 17.832 7.5C17.6758 7.22005 17.4674 7.00195 17.207 6.8457C16.9531 6.68945 16.6374 6.61133 16.2598 6.61133C15.8952 6.61133 15.5859 6.68945 15.332 6.8457C15.0781 7.00195 14.873 7.22005 14.7168 7.5C14.5605 7.77995 14.4466 8.10221 14.375 8.4668C14.3099 8.82487 14.2773 9.20898 14.2773 9.61914ZM27.5879 15H24.4629L24.4824 12.5391H27.5879C28.2975 12.5391 28.8965 12.3763 29.3848 12.0508C29.873 11.7188 30.2441 11.2305 30.498 10.5859C30.752 9.9349 30.8789 9.14388 30.8789 8.21289V7.55859C30.8789 6.85547 30.8073 6.23698 30.6641 5.70312C30.5208 5.16276 30.3092 4.71029 30.0293 4.3457C29.7493 3.98112 29.401 3.70768 28.9844 3.52539C28.5742 3.3431 28.1022 3.25195 27.5684 3.25195H24.4043V0.78125H27.5684C28.5319 0.78125 29.4108 0.94401 30.2051 1.26953C31.0059 1.59505 31.696 2.06055 32.2754 2.66602C32.8613 3.27148 33.3138 3.98763 33.6328 4.81445C33.9518 5.64128 34.1113 6.5625 34.1113 7.57812V8.21289C34.1113 9.22201 33.9518 10.1432 33.6328 10.9766C33.3138 11.8034 32.8613 12.5195 32.2754 13.125C31.696 13.724 31.0091 14.1862 30.2148 14.5117C29.4206 14.8372 28.5449 15 27.5879 15ZM26.2695 0.78125V15H23.0859V0.78125H26.2695ZM35.459 9.82422V9.61914C35.459 8.8444 35.5697 8.13151 35.791 7.48047C36.0124 6.82292 36.3379 6.25326 36.7676 5.77148C37.1973 5.28971 37.7246 4.91536 38.3496 4.64844C38.9746 4.375 39.6908 4.23828 40.498 4.23828C41.3184 4.23828 42.041 4.375 42.666 4.64844C43.2975 4.91536 43.8281 5.28971 44.2578 5.77148C44.6875 6.25326 45.013 6.82292 45.2344 7.48047C45.4557 8.13151 45.5664 8.8444 45.5664 9.61914V9.82422C45.5664 10.5924 45.4557 11.3053 45.2344 11.9629C45.013 12.6139 44.6875 13.1836 44.2578 13.6719C43.8281 14.1536 43.3008 14.528 42.6758 14.7949C42.0508 15.0618 41.3314 15.1953 40.5176 15.1953C39.7103 15.1953 38.9909 15.0618 38.3594 14.7949C37.7279 14.528 37.1973 14.1536 36.7676 13.6719C36.3379 13.1836 36.0124 12.6139 35.791 11.9629C35.5697 11.3053 35.459 10.5924 35.459 9.82422ZM38.5156 9.61914V9.82422C38.5156 10.2409 38.5482 10.6315 38.6133 10.9961C38.6849 11.3607 38.7988 11.6797 38.9551 11.9531C39.1113 12.2266 39.3164 12.4414 39.5703 12.5977C39.8307 12.7474 40.1465 12.8223 40.5176 12.8223C40.8887 12.8223 41.2012 12.7474 41.4551 12.5977C41.709 12.4414 41.9141 12.2266 42.0703 11.9531C42.2266 11.6797 42.3372 11.3607 42.4023 10.9961C42.474 10.6315 42.5098 10.2409 42.5098 9.82422V9.61914C42.5098 9.20898 42.474 8.82487 42.4023 8.4668C42.3372 8.10221 42.2266 7.77995 42.0703 7.5C41.9141 7.22005 41.7057 7.00195 41.4453 6.8457C41.1914 6.68945 40.8757 6.61133 40.498 6.61133C40.1335 6.61133 39.8242 6.68945 39.5703 6.8457C39.3164 7.00195 39.1113 7.22005 38.9551 7.5C38.7988 7.77995 38.6849 8.10221 38.6133 8.4668C38.5482 8.82487 38.5156 9.20898 38.5156 9.61914ZM58.2129 3.48633L54.541 15H51.1426L56.4062 0.78125H58.5547L58.2129 3.48633ZM61.2598 15L57.5781 3.48633L57.1973 0.78125H59.375L64.6582 15H61.2598ZM61.1035 9.70703V12.168H53.6914V9.70703H61.1035ZM71.4453 10.0586H67.8711V7.58789H71.4453C71.9727 7.58789 72.3958 7.5 72.7148 7.32422C73.0404 7.14844 73.278 6.90755 73.4277 6.60156C73.584 6.28906 73.6621 5.9375 73.6621 5.54688C73.6621 5.14323 73.584 4.76888 73.4277 4.42383C73.278 4.07227 73.0404 3.78906 72.7148 3.57422C72.3958 3.35938 71.9727 3.25195 71.4453 3.25195H69.0234V15H65.8398V0.78125H71.4453C72.5781 0.78125 73.5482 0.986328 74.3555 1.39648C75.1693 1.80664 75.791 2.36979 76.2207 3.08594C76.6569 3.79557 76.875 4.60938 76.875 5.52734C76.875 6.44531 76.6569 7.24284 76.2207 7.91992C75.791 8.59701 75.1693 9.12435 74.3555 9.50195C73.5482 9.87305 72.5781 10.0586 71.4453 10.0586ZM84.4141 10.0586H80.8398V7.58789H84.4141C84.9414 7.58789 85.3646 7.5 85.6836 7.32422C86.0091 7.14844 86.2467 6.90755 86.3965 6.60156C86.5527 6.28906 86.6309 5.9375 86.6309 5.54688C86.6309 5.14323 86.5527 4.76888 86.3965 4.42383C86.2467 4.07227 86.0091 3.78906 85.6836 3.57422C85.3646 3.35938 84.9414 3.25195 84.4141 3.25195H81.9922V15H78.8086V0.78125H84.4141C85.5469 0.78125 86.5169 0.986328 87.3242 1.39648C88.138 1.80664 88.7598 2.36979 89.1895 3.08594C89.6257 3.79557 89.8438 4.60938 89.8438 5.52734C89.8438 6.44531 89.6257 7.24284 89.1895 7.91992C88.7598 8.59701 88.138 9.12435 87.3242 9.50195C86.5169 9.87305 85.5469 10.0586 84.4141 10.0586Z" fill="#273249"/>
</svg>
