<svg width="25" height="25" viewBox="0 0 25 25" fill="none" xmlns="http://www.w3.org/2000/svg">
<path d="M3.90625 10.9375C3.69905 10.9375 3.50034 10.8552 3.35382 10.7087C3.20731 10.5622 3.125 10.3634 3.125 10.1562V3.90781C3.125 3.70061 3.20731 3.50189 3.35382 3.35538C3.50034 3.20887 3.69905 3.12656 3.90625 3.12656H10.1563C10.3635 3.12656 10.5622 3.20887 10.7087 3.35538C10.8552 3.50189 10.9375 3.70061 10.9375 3.90781V10.1562C10.9375 10.3634 10.8552 10.5622 10.7087 10.7087C10.5622 10.8552 10.3635 10.9375 10.1563 10.9375H3.90625ZM14.8438 10.9375C14.6366 10.9375 14.4378 10.8552 14.2913 10.7087C14.1448 10.5622 14.0625 10.3634 14.0625 10.1562V3.90781C14.0625 3.70061 14.1448 3.50189 14.2913 3.35538C14.4378 3.20887 14.6366 3.12656 14.8438 3.12656H21.0922C21.2994 3.12656 21.4981 3.20887 21.6446 3.35538C21.7911 3.50189 21.8734 3.70061 21.8734 3.90781V10.1562C21.8734 10.3634 21.7911 10.5622 21.6446 10.7087C21.4981 10.8552 21.2994 10.9375 21.0922 10.9375H14.8438ZM3.90625 21.875C3.69905 21.875 3.50034 21.7927 3.35382 21.6462C3.20731 21.4997 3.125 21.3009 3.125 21.0937V14.8437C3.125 14.6365 3.20731 14.4378 3.35382 14.2913C3.50034 14.1448 3.69905 14.0625 3.90625 14.0625H10.1563C10.3635 14.0625 10.5622 14.1448 10.7087 14.2913C10.8552 14.4378 10.9375 14.6365 10.9375 14.8437V21.0937C10.9375 21.3009 10.8552 21.4997 10.7087 21.6462C10.5622 21.7927 10.3635 21.875 10.1563 21.875H3.90625ZM14.8438 21.875C14.6366 21.875 14.4378 21.7927 14.2913 21.6462C14.1448 21.4997 14.0625 21.3009 14.0625 21.0937V14.8437C14.0625 14.6365 14.1448 14.4378 14.2913 14.2913C14.4378 14.1448 14.6366 14.0625 14.8438 14.0625H21.0922C21.2994 14.0625 21.4981 14.1448 21.6446 14.2913C21.7911 14.4378 21.8734 14.6365 21.8734 14.8437V21.0937C21.8734 21.3009 21.7911 21.4997 21.6446 21.6462C21.4981 21.7927 21.2994 21.875 21.0922 21.875H14.8438Z" fill="#6A6A6A"/>
</svg>
