<svg width="25" height="25" viewBox="0 0 25 25" fill="none" xmlns="http://www.w3.org/2000/svg">
<path d="M18.75 13.5396H13.5417V18.7479C13.5417 19.0242 13.4319 19.2891 13.2366 19.4845C13.0412 19.6798 12.7763 19.7896 12.5 19.7896C12.2237 19.7896 11.9588 19.6798 11.7634 19.4845C11.5681 19.2891 11.4583 19.0242 11.4583 18.7479V13.5396H6.25C5.97374 13.5396 5.70878 13.4298 5.51343 13.2345C5.31808 13.0391 5.20834 12.7742 5.20834 12.4979C5.20834 12.2216 5.31808 11.9567 5.51343 11.7613C5.70878 11.566 5.97374 11.4562 6.25 11.4562H11.4583V6.2479C11.4583 5.97164 11.5681 5.70668 11.7634 5.51133C11.9588 5.31598 12.2237 5.20624 12.5 5.20624C12.7763 5.20624 13.0412 5.31598 13.2366 5.51133C13.4319 5.70668 13.5417 5.97164 13.5417 6.2479V11.4562H18.75C19.0263 11.4562 19.2912 11.566 19.4866 11.7613C19.6819 11.9567 19.7917 12.2216 19.7917 12.4979C19.7917 12.7742 19.6819 13.0391 19.4866 13.2345C19.2912 13.4298 19.0263 13.5396 18.75 13.5396Z" fill="black"/>
</svg>
