<svg width="25" height="25" viewBox="0 0 25 25" fill="none" xmlns="http://www.w3.org/2000/svg">
<path d="M21.0937 13.0937V11.8984L22.5937 10.5859C22.8702 10.3422 23.0517 10.0086 23.106 9.64406C23.1603 9.27951 23.084 8.90749 22.8906 8.59375L21.0469 5.46875C20.9099 5.23145 20.7129 5.03436 20.4756 4.89723C20.2384 4.76011 19.9693 4.68778 19.6953 4.6875C19.5255 4.6862 19.3566 4.71258 19.1953 4.76562L17.2969 5.40625C16.9691 5.18844 16.6272 4.9927 16.2734 4.82031L15.875 2.85156C15.8035 2.49188 15.6079 2.16878 15.3222 1.93883C15.0366 1.70888 14.6791 1.58672 14.3125 1.59375H10.6562C10.2896 1.58672 9.93216 1.70888 9.6465 1.93883C9.36085 2.16878 9.16518 2.49188 9.09373 2.85156L8.6953 4.82031C8.33899 4.99265 7.99449 5.18839 7.66405 5.40625L5.80467 4.73437C5.64162 4.69189 5.47278 4.67606 5.30467 4.6875C5.03067 4.68778 4.76155 4.76011 4.52433 4.89723C4.28711 5.03436 4.09011 5.23145 3.95311 5.46875L2.10936 8.59375C1.927 8.90702 1.85924 9.27395 1.91768 9.63169C1.97611 9.98943 2.15711 10.3157 2.42967 10.5547L3.90623 11.9062V13.1016L2.42967 14.4141C2.14941 14.6547 1.96346 14.9868 1.90483 15.3515C1.84619 15.7162 1.91865 16.0899 2.10936 16.4062L3.95311 19.5312C4.09011 19.7685 4.28711 19.9656 4.52433 20.1028C4.76155 20.2399 5.03067 20.3122 5.30467 20.3125C5.47448 20.3138 5.64336 20.2874 5.80467 20.2344L7.70311 19.5937C8.03087 19.8116 8.37278 20.0073 8.72655 20.1797L9.12498 22.1484C9.19642 22.5081 9.3921 22.8312 9.67775 23.0612C9.96341 23.2911 10.3208 23.4133 10.6875 23.4062H14.375C14.7416 23.4133 15.0991 23.2911 15.3847 23.0612C15.6704 22.8312 15.866 22.5081 15.9375 22.1484L16.3359 20.1797C16.6922 20.0073 17.0367 19.8116 17.3672 19.5937L19.2578 20.2344C19.4191 20.2874 19.588 20.3138 19.7578 20.3125C20.0318 20.3122 20.3009 20.2399 20.5381 20.1028C20.7754 19.9656 20.9724 19.7685 21.1094 19.5312L22.8906 16.4062C23.073 16.093 23.1407 15.726 23.0823 15.3683C23.0239 15.0106 22.8429 14.6843 22.5703 14.4453L21.0937 13.0937ZM19.6953 18.75L17.0156 17.8437C16.3883 18.3751 15.6714 18.7904 14.8984 19.0703L14.3437 21.875H10.6562L10.1015 19.1016C9.33469 18.8137 8.62164 18.3991 7.99217 17.875L5.30467 18.75L3.46092 15.625L5.58592 13.75C5.44147 12.9413 5.44147 12.1134 5.58592 11.3047L3.46092 9.375L5.30467 6.25L7.98436 7.15625C8.61165 6.62491 9.32858 6.20957 10.1015 5.92969L10.6562 3.125H14.3437L14.8984 5.89844C15.6653 6.18626 16.3783 6.60089 17.0078 7.125L19.6953 6.25L21.539 9.375L19.414 11.25C19.5585 12.0587 19.5585 12.8866 19.414 13.6953L21.539 15.625L19.6953 18.75Z" fill="#545454"/>
<path d="M12.5 17.1875C11.5729 17.1875 10.6666 16.9126 9.89577 16.3975C9.12491 15.8824 8.5241 15.1504 8.16932 14.2938C7.81453 13.4373 7.7217 12.4948 7.90257 11.5855C8.08344 10.6762 8.52988 9.841 9.18544 9.18544C9.841 8.52988 10.6762 8.08344 11.5855 7.90257C12.4948 7.7217 13.4373 7.81453 14.2938 8.16932C15.1504 8.5241 15.8824 9.12491 16.3975 9.89577C16.9126 10.6666 17.1875 11.5729 17.1875 12.5C17.1938 13.1173 17.0768 13.7297 16.8435 14.3012C16.6101 14.8728 16.2651 15.392 15.8285 15.8285C15.392 16.2651 14.8728 16.6101 14.3012 16.8435C13.7297 17.0768 13.1173 17.1938 12.5 17.1875ZM12.5 9.375C12.087 9.36538 11.6763 9.43964 11.2928 9.59328C10.9093 9.74692 10.561 9.97675 10.2689 10.2689C9.97675 10.561 9.74692 10.9093 9.59328 11.2928C9.43964 11.6763 9.36538 12.087 9.375 12.5C9.36538 12.913 9.43964 13.3237 9.59328 13.7072C9.74692 14.0907 9.97675 14.439 10.2689 14.7311C10.561 15.0233 10.9093 15.2531 11.2928 15.4067C11.6763 15.5604 12.087 15.6346 12.5 15.625C12.913 15.6346 13.3237 15.5604 13.7072 15.4067C14.0907 15.2531 14.439 15.0233 14.7311 14.7311C15.0233 14.439 15.2531 14.0907 15.4067 13.7072C15.5604 13.3237 15.6346 12.913 15.625 12.5C15.6346 12.087 15.5604 11.6763 15.4067 11.2928C15.2531 10.9093 15.0233 10.561 14.7311 10.2689C14.439 9.97675 14.0907 9.74692 13.7072 9.59328C13.3237 9.43964 12.913 9.36538 12.5 9.375Z" fill="#545454"/>
</svg>
