<svg width="25" height="25" viewBox="0 0 25 25" fill="none" xmlns="http://www.w3.org/2000/svg">
<path d="M12.5 2.08333C11.132 2.08333 9.7775 2.35276 8.51369 2.87625C7.24989 3.39974 6.10156 4.16702 5.13428 5.1343C3.18078 7.0878 2.08331 9.73732 2.08331 12.5C2.08331 15.2627 3.18078 17.9122 5.13428 19.8657C6.10156 20.833 7.24989 21.6003 8.51369 22.1237C9.7775 22.6472 11.132 22.9167 12.5 22.9167C15.2627 22.9167 17.9122 21.8192 19.8657 19.8657C21.8192 17.9122 22.9166 15.2627 22.9166 12.5C22.9166 11.1321 22.6472 9.77752 22.1237 8.51371C21.6002 7.2499 20.833 6.10158 19.8657 5.1343C18.8984 4.16702 17.7501 3.39974 16.4863 2.87625C15.2225 2.35276 13.8679 2.08333 12.5 2.08333ZM7.36456 19.0417C7.81248 18.1042 10.5416 17.1875 12.5 17.1875C14.4583 17.1875 17.1875 18.1042 17.6354 19.0417C16.1764 20.2042 14.3655 20.836 12.5 20.8333C10.5625 20.8333 8.78123 20.1667 7.36456 19.0417ZM19.125 17.5312C17.6354 15.7187 14.0208 15.1042 12.5 15.1042C10.9791 15.1042 7.36456 15.7187 5.87498 17.5312C4.76684 16.0881 4.1663 14.3195 4.16665 12.5C4.16665 7.90625 7.90623 4.16666 12.5 4.16666C17.0937 4.16666 20.8333 7.90625 20.8333 12.5C20.8333 14.3958 20.1875 16.1458 19.125 17.5312ZM12.5 6.25C10.4791 6.25 8.85415 7.875 8.85415 9.89583C8.85415 11.9167 10.4791 13.5417 12.5 13.5417C14.5208 13.5417 16.1458 11.9167 16.1458 9.89583C16.1458 7.875 14.5208 6.25 12.5 6.25ZM12.5 11.4583C12.0856 11.4583 11.6882 11.2937 11.3951 11.0007C11.1021 10.7077 10.9375 10.3102 10.9375 9.89583C10.9375 9.48143 11.1021 9.084 11.3951 8.79097C11.6882 8.49795 12.0856 8.33333 12.5 8.33333C12.9144 8.33333 13.3118 8.49795 13.6048 8.79097C13.8979 9.084 14.0625 9.48143 14.0625 9.89583C14.0625 10.3102 13.8979 10.7077 13.6048 11.0007C13.3118 11.2937 12.9144 11.4583 12.5 11.4583Z" fill="#6A6A6A"/>
</svg>
